<svg width="41" height="41" viewBox="0 0 41 41" fill="none" xmlns="http://www.w3.org/2000/svg">
<g clip-path="url(#clip0_77_989)">
<path d="M17.1667 22.1666C17.1667 23.0506 17.5179 23.8985 18.143 24.5236C18.7681 25.1487 19.616 25.4999 20.5 25.4999C21.3841 25.4999 22.2319 25.1487 22.857 24.5236C23.4821 23.8985 23.8333 23.0506 23.8333 22.1666C23.8333 21.2825 23.4821 20.4347 22.857 19.8096C22.2319 19.1844 21.3841 18.8333 20.5 18.8333C19.616 18.8333 18.7681 19.1844 18.143 19.8096C17.5179 20.4347 17.1667 21.2825 17.1667 22.1666Z" stroke="#1B2F7C" stroke-width="2" stroke-linecap="round" stroke-linejoin="round"/>
<path d="M13.8333 35.5V33.8333C13.8333 32.9493 14.1845 32.1014 14.8096 31.4763C15.4348 30.8512 16.2826 30.5 17.1667 30.5H23.8333C24.7174 30.5 25.5652 30.8512 26.1903 31.4763C26.8155 32.1014 27.1667 32.9493 27.1667 33.8333V35.5" stroke="#1B2F7C" stroke-width="2" stroke-linecap="round" stroke-linejoin="round"/>
<path d="M25.5 8.83333C25.5 9.71739 25.8512 10.5652 26.4763 11.1904C27.1014 11.8155 27.9493 12.1667 28.8333 12.1667C29.7174 12.1667 30.5652 11.8155 31.1904 11.1904C31.8155 10.5652 32.1667 9.71739 32.1667 8.83333C32.1667 7.94928 31.8155 7.10143 31.1904 6.47631C30.5652 5.85119 29.7174 5.5 28.8333 5.5C27.9493 5.5 27.1014 5.85119 26.4763 6.47631C25.8512 7.10143 25.5 7.94928 25.5 8.83333Z" stroke="#1B2F7C" stroke-width="2" stroke-linecap="round" stroke-linejoin="round"/>
<path d="M28.8333 17.1667H32.1667C33.0507 17.1667 33.8986 17.5179 34.5237 18.1431C35.1488 18.7682 35.5 19.616 35.5 20.5001V22.1667" stroke="#1B2F7C" stroke-width="2" stroke-linecap="round" stroke-linejoin="round"/>
<path d="M8.83333 8.83333C8.83333 9.71739 9.18452 10.5652 9.80964 11.1904C10.4348 11.8155 11.2826 12.1667 12.1667 12.1667C13.0507 12.1667 13.8986 11.8155 14.5237 11.1904C15.1488 10.5652 15.5 9.71739 15.5 8.83333C15.5 7.94928 15.1488 7.10143 14.5237 6.47631C13.8986 5.85119 13.0507 5.5 12.1667 5.5C11.2826 5.5 10.4348 5.85119 9.80964 6.47631C9.18452 7.10143 8.83333 7.94928 8.83333 8.83333Z" stroke="#1B2F7C" stroke-width="2" stroke-linecap="round" stroke-linejoin="round"/>
<path d="M5.5 22.1667V20.5001C5.5 19.616 5.85119 18.7682 6.47631 18.1431C7.10143 17.5179 7.94928 17.1667 8.83333 17.1667H12.1667" stroke="#1B2F7C" stroke-width="2" stroke-linecap="round" stroke-linejoin="round"/>
</g>
<defs>
<clipPath id="clip0_77_989">
<rect width="40" height="40" fill="white" transform="translate(0.5 0.5)"/>
</clipPath>
</defs>
</svg>
