<svg width="41" height="41" viewBox="0 0 41 41" fill="none" xmlns="http://www.w3.org/2000/svg">
<g clip-path="url(#clip0_77_995)">
<path d="M5.5 20.5C5.5 22.4698 5.88799 24.4204 6.64181 26.2403C7.39563 28.0601 8.50052 29.7137 9.8934 31.1066C11.2863 32.4995 12.9399 33.6044 14.7597 34.3582C16.5796 35.112 18.5302 35.5 20.5 35.5C22.4698 35.5 24.4204 35.112 26.2403 34.3582C28.0601 33.6044 29.7137 32.4995 31.1066 31.1066C32.4995 29.7137 33.6044 28.0601 34.3582 26.2403C35.112 24.4204 35.5 22.4698 35.5 20.5C35.5 18.5302 35.112 16.5796 34.3582 14.7597C33.6044 12.9399 32.4995 11.2863 31.1066 9.8934C29.7137 8.50052 28.0601 7.39563 26.2403 6.64181C24.4204 5.88799 22.4698 5.5 20.5 5.5C18.5302 5.5 16.5796 5.88799 14.7597 6.64181C12.9399 7.39563 11.2863 8.50052 9.8934 9.8934C8.50052 11.2863 7.39563 12.9399 6.64181 14.7597C5.88799 16.5796 5.5 18.5302 5.5 20.5Z" stroke="#1B2F7C" stroke-width="1.75" stroke-linecap="round" stroke-linejoin="round"/>
<path d="M15.5 20.5001L18.8333 23.8334L25.5 17.1667" stroke="#1B2F7C" stroke-width="1.75" stroke-linecap="round" stroke-linejoin="round"/>
</g>
<defs>
<clipPath id="clip0_77_995">
<rect width="40" height="40" fill="white" transform="translate(0.5 0.5)"/>
</clipPath>
</defs>
</svg>
