<svg width="41" height="41" viewBox="0 0 41 41" fill="none" xmlns="http://www.w3.org/2000/svg">
<path d="M12.1667 18.8334V32.1668C12.1667 32.6088 11.9911 33.0327 11.6785 33.3453C11.366 33.6578 10.942 33.8334 10.5 33.8334H7.16667C6.72464 33.8334 6.30072 33.6578 5.98816 33.3453C5.67559 33.0327 5.5 32.6088 5.5 32.1668V20.5001C5.5 20.0581 5.67559 19.6341 5.98816 19.3216C6.30072 19.009 6.72464 18.8334 7.16667 18.8334H12.1667ZM12.1667 18.8334C13.9348 18.8334 15.6305 18.131 16.8807 16.8808C18.131 15.6306 18.8333 13.9349 18.8333 12.1667V10.5001C18.8333 9.61603 19.1845 8.76818 19.8096 8.14306C20.4348 7.51794 21.2826 7.16675 22.1667 7.16675C23.0507 7.16675 23.8986 7.51794 24.5237 8.14306C25.1488 8.76818 25.5 9.61603 25.5 10.5001V18.8334H30.5C31.3841 18.8334 32.2319 19.1846 32.857 19.8097C33.4821 20.4348 33.8333 21.2827 33.8333 22.1667L32.1667 30.5001C31.927 31.5225 31.4723 32.4005 30.8711 33.0017C30.2699 33.6029 29.5547 33.8948 28.8333 33.8334H17.1667C15.8406 33.8334 14.5688 33.3066 13.6311 32.369C12.6935 31.4313 12.1667 30.1595 12.1667 28.8334" stroke="#1B2F7C" stroke-width="1.75" stroke-linecap="round" stroke-linejoin="round"/>
</svg>
