<svg width="24" height="24" viewBox="0 0 24 24" fill="none" xmlns="http://www.w3.org/2000/svg">
<path d="M11 9C11 7.34421 12.3442 6 14 6C12.3458 6 11 7.34579 11 9Z" fill="white" stroke="white" stroke-width="1.5"/>
<mask id="path-2-inside-1_77_850" fill="white">
<path d="M15 22.75H9C3.57 22.75 1.25 20.43 1.25 15V9C1.25 3.57 3.57 1.25 9 1.25H15C20.43 1.25 22.75 3.57 22.75 9V15C22.75 20.43 20.43 22.75 15 22.75ZM9 2.75C4.39 2.75 2.75 4.39 2.75 9V15C2.75 19.61 4.39 21.25 9 21.25H15C19.61 21.25 21.25 19.61 21.25 15V9C21.25 4.39 19.61 2.75 15 2.75H9Z"/>
</mask>
<path d="M15 22.75H9C3.57 22.75 1.25 20.43 1.25 15V9C1.25 3.57 3.57 1.25 9 1.25H15C20.43 1.25 22.75 3.57 22.75 9V15C22.75 20.43 20.43 22.75 15 22.75ZM9 2.75C4.39 2.75 2.75 4.39 2.75 9V15C2.75 19.61 4.39 21.25 9 21.25H15C19.61 21.25 21.25 19.61 21.25 15V9C21.25 4.39 19.61 2.75 15 2.75H9Z" fill="white"/>
<path d="M15 21.25H9V24.25H15V21.25ZM9 21.25C6.45719 21.25 4.99977 20.701 4.14941 19.8506C3.29905 19.0002 2.75 17.5428 2.75 15H-0.25C-0.25 17.8872 0.360951 20.3048 2.02809 21.9719C3.69523 23.639 6.11281 24.25 9 24.25V21.25ZM2.75 15V9H-0.25V15H2.75ZM2.75 9C2.75 6.45719 3.29905 4.99977 4.14941 4.14941C4.99977 3.29905 6.45719 2.75 9 2.75V-0.25C6.11281 -0.25 3.69523 0.360951 2.02809 2.02809C0.360951 3.69523 -0.25 6.11281 -0.25 9H2.75ZM9 2.75H15V-0.25H9V2.75ZM15 2.75C17.5428 2.75 19.0002 3.29905 19.8506 4.14941C20.701 4.99977 21.25 6.45719 21.25 9H24.25C24.25 6.11281 23.639 3.69523 21.9719 2.02809C20.3048 0.360951 17.8872 -0.25 15 -0.25V2.75ZM21.25 9V15H24.25V9H21.25ZM21.25 15C21.25 17.5428 20.701 19.0002 19.8506 19.8506C19.0002 20.701 17.5428 21.25 15 21.25V24.25C17.8872 24.25 20.3048 23.639 21.9719 21.9719C23.639 20.3048 24.25 17.8872 24.25 15H21.25ZM9 1.25C6.58917 1.25 4.50797 1.66321 3.08559 3.08559C1.66321 4.50797 1.25 6.58917 1.25 9H4.25C4.25 6.80083 4.65679 5.75703 5.20691 5.20691C5.75703 4.65679 6.80083 4.25 9 4.25V1.25ZM1.25 9V15H4.25V9H1.25ZM1.25 15C1.25 17.4108 1.66321 19.492 3.08559 20.9144C4.50797 22.3368 6.58917 22.75 9 22.75V19.75C6.80083 19.75 5.75703 19.3432 5.20691 18.7931C4.65679 18.243 4.25 17.1992 4.25 15H1.25ZM9 22.75H15V19.75H9V22.75ZM15 22.75C17.4108 22.75 19.492 22.3368 20.9144 20.9144C22.3368 19.492 22.75 17.4108 22.75 15H19.75C19.75 17.1992 19.3432 18.243 18.7931 18.7931C18.243 19.3432 17.1992 19.75 15 19.75V22.75ZM22.75 15V9H19.75V15H22.75ZM22.75 9C22.75 6.58917 22.3368 4.50797 20.9144 3.08559C19.492 1.66321 17.4108 1.25 15 1.25V4.25C17.1992 4.25 18.243 4.65679 18.7931 5.20691C19.3432 5.75703 19.75 6.80083 19.75 9H22.75ZM15 1.25H9V4.25H15V1.25Z" fill="white" mask="url(#path-2-inside-1_77_850)"/>
</svg>
