<svg width="24" height="24" viewBox="0 0 24 24" fill="none" xmlns="http://www.w3.org/2000/svg">
<path d="M7 20C5.45181 20 4.21411 19.4834 3.36533 18.6347C2.51655 17.7859 2 16.5482 2 15C2 16.4548 2.47413 17.7198 3.37717 18.6228C4.28021 19.5259 5.54516 20 7 20ZM2 9C2 7.45181 2.51655 6.21411 3.36533 5.36533C4.21411 4.51655 5.45181 4 7 4C5.54516 4 4.28021 4.47413 3.37717 5.37717C2.47413 6.28021 2 7.54516 2 9ZM17 4C18.5482 4 19.7859 4.51655 20.6347 5.36533C21.4834 6.21411 22 7.45181 22 9C22 7.54516 21.5259 6.28021 20.6228 5.37717C19.7198 4.47413 18.4548 4 17 4ZM22 15C22 16.5482 21.4834 17.7859 20.6347 18.6347C19.7859 19.4834 18.5482 20 17 20C18.4548 20 19.7198 19.5259 20.6228 18.6228C21.5259 17.7198 22 16.4548 22 15Z" fill="white" stroke="white" stroke-width="1.5"/>
<path d="M10.8602 14.7471C11.0475 14.7055 11.2359 14.6234 11.419 14.5112L13.8855 13.0333L13.8859 13.0331C14.068 12.9238 14.228 12.7934 14.3505 12.6397C14.4628 12.4987 14.59 12.2775 14.59 12C14.59 11.8095 14.5302 11.6476 14.4575 11.5206C14.5567 11.6879 14.6 11.8562 14.6 12.01C14.6 12.3365 14.405 12.7286 13.8935 13.0372C13.8933 13.0374 13.893 13.0375 13.8928 13.0377L11.428 14.5145C11.1048 14.7032 10.8157 14.78 10.59 14.78C10.4379 14.78 10.2982 14.7471 10.1747 14.6858C10.4363 14.8125 10.7023 14.7822 10.8602 14.7471ZM9.59998 13.48C9.59998 13.6762 9.62371 13.8608 9.67183 14.0262C9.62636 13.873 9.59998 13.6947 9.59998 13.49V13.48Z" fill="white" stroke="white" stroke-width="1.5"/>
</svg>
