<svg width="22" height="25" viewBox="0 0 22 25" fill="none" xmlns="http://www.w3.org/2000/svg">
<g clip-path="url(#clip0_77_657)">
<path d="M4.47511 4.5H8.05522L9.84528 9.5L7.60771 11C8.56625 13.1715 10.1393 14.929 12.0828 16L13.4254 13.5L17.9005 15.5V19.5C17.9005 20.0304 17.7119 20.5391 17.3762 20.9142C17.0405 21.2893 16.5852 21.5 16.1105 21.5C12.6192 21.263 9.3263 19.6065 6.85305 16.8432C4.3798 14.0798 2.89722 10.4007 2.68506 6.5C2.68506 5.96957 2.87365 5.46086 3.20935 5.08579C3.54505 4.71071 4.00036 4.5 4.47511 4.5Z" fill="white"/>
</g>
<defs>
<clipPath id="clip0_77_657">
<rect width="21.4807" height="24" fill="white" transform="translate(0 0.5)"/>
</clipPath>
</defs>
</svg>
