<svg width="24" height="24" viewBox="0 0 24 24" fill="none" xmlns="http://www.w3.org/2000/svg">
<mask id="path-1-inside-1_77_639" fill="white">
<path d="M11.5 21.75C5.85 21.75 1.25 17.15 1.25 11.5C1.25 5.85 5.85 1.25 11.5 1.25C17.15 1.25 21.75 5.85 21.75 11.5C21.75 17.15 17.15 21.75 11.5 21.75ZM11.5 2.75C6.67 2.75 2.75 6.68 2.75 11.5C2.75 16.32 6.67 20.25 11.5 20.25C16.33 20.25 20.25 16.32 20.25 11.5C20.25 6.68 16.33 2.75 11.5 2.75Z"/>
</mask>
<path d="M11.5 21.75C5.85 21.75 1.25 17.15 1.25 11.5C1.25 5.85 5.85 1.25 11.5 1.25C17.15 1.25 21.75 5.85 21.75 11.5C21.75 17.15 17.15 21.75 11.5 21.75ZM11.5 2.75C6.67 2.75 2.75 6.68 2.75 11.5C2.75 16.32 6.67 20.25 11.5 20.25C16.33 20.25 20.25 16.32 20.25 11.5C20.25 6.68 16.33 2.75 11.5 2.75Z" fill="#292D32"/>
<path d="M11.5 20.25C6.67843 20.25 2.75 16.3216 2.75 11.5H-0.25C-0.25 17.9784 5.02157 23.25 11.5 23.25V20.25ZM2.75 11.5C2.75 6.67843 6.67843 2.75 11.5 2.75V-0.25C5.02157 -0.25 -0.25 5.02157 -0.25 11.5H2.75ZM11.5 2.75C16.3216 2.75 20.25 6.67843 20.25 11.5H23.25C23.25 5.02157 17.9784 -0.25 11.5 -0.25V2.75ZM20.25 11.5C20.25 16.3216 16.3216 20.25 11.5 20.25V23.25C17.9784 23.25 23.25 17.9784 23.25 11.5H20.25ZM11.5 1.25C5.84046 1.25 1.25 5.85269 1.25 11.5H4.25C4.25 7.50731 7.49954 4.25 11.5 4.25V1.25ZM1.25 11.5C1.25 17.1473 5.84046 21.75 11.5 21.75V18.75C7.49954 18.75 4.25 15.4927 4.25 11.5H1.25ZM11.5 21.75C17.1595 21.75 21.75 17.1473 21.75 11.5H18.75C18.75 15.4927 15.5005 18.75 11.5 18.75V21.75ZM21.75 11.5C21.75 5.85269 17.1595 1.25 11.5 1.25V4.25C15.5005 4.25 18.75 7.50731 18.75 11.5H21.75Z" fill="white" mask="url(#path-1-inside-1_77_639)"/>
<mask id="path-3-inside-2_77_639" fill="white">
<path d="M21.9999 22.75C21.8099 22.75 21.6199 22.68 21.4699 22.53L19.4699 20.53C19.1799 20.24 19.1799 19.76 19.4699 19.47C19.7599 19.18 20.2399 19.18 20.5299 19.47L22.5299 21.47C22.8199 21.76 22.8199 22.24 22.5299 22.53C22.3799 22.68 22.1899 22.75 21.9999 22.75Z"/>
</mask>
<path d="M21.9999 22.75C21.8099 22.75 21.6199 22.68 21.4699 22.53L19.4699 20.53C19.1799 20.24 19.1799 19.76 19.4699 19.47C19.7599 19.18 20.2399 19.18 20.5299 19.47L22.5299 21.47C22.8199 21.76 22.8199 22.24 22.5299 22.53C22.3799 22.68 22.1899 22.75 21.9999 22.75Z" fill="#292D32"/>
<path d="M21.4699 22.53L20.4093 23.5907L21.4699 22.53ZM19.4699 20.53L20.5306 19.4693L19.4699 20.53ZM20.5299 19.47L19.4693 20.5307L20.5299 19.47ZM22.5299 21.47L23.5906 20.4093L22.5299 21.47ZM21.9999 21.25C22.1863 21.25 22.3845 21.3232 22.5306 21.4693L20.4093 23.5907C20.8554 24.0368 21.4336 24.25 21.9999 24.25V21.25ZM22.5306 21.4693L20.5306 19.4693L18.4093 21.5907L20.4093 23.5907L22.5306 21.4693ZM20.5306 19.4693C20.8264 19.7651 20.8264 20.2349 20.5306 20.5307L18.4093 18.4093C17.5335 19.2851 17.5335 20.7149 18.4093 21.5907L20.5306 19.4693ZM20.5306 20.5307C20.2348 20.8264 19.7651 20.8264 19.4693 20.5307L21.5906 18.4093C20.7148 17.5336 19.2851 17.5336 18.4093 18.4093L20.5306 20.5307ZM19.4693 20.5307L21.4693 22.5307L23.5906 20.4093L21.5906 18.4093L19.4693 20.5307ZM21.4693 22.5307C21.1735 22.2349 21.1735 21.7651 21.4693 21.4693L23.5906 23.5907C24.4664 22.7149 24.4664 21.2851 23.5906 20.4093L21.4693 22.5307ZM21.4693 21.4693C21.6154 21.3232 21.8136 21.25 21.9999 21.25V24.25C22.5663 24.25 23.1445 24.0368 23.5906 23.5907L21.4693 21.4693Z" fill="white" mask="url(#path-3-inside-2_77_639)"/>
</svg>
