<svg width="24" height="25" viewBox="0 0 24 25" fill="none" xmlns="http://www.w3.org/2000/svg">
<g clip-path="url(#clip0_77_663)">
<path d="M3 7.5C3 6.96957 3.21071 6.46086 3.58579 6.08579C3.96086 5.71071 4.46957 5.5 5 5.5H19C19.5304 5.5 20.0391 5.71071 20.4142 6.08579C20.7893 6.46086 21 6.96957 21 7.5V17.5C21 18.0304 20.7893 18.5391 20.4142 18.9142C20.0391 19.2893 19.5304 19.5 19 19.5H5C4.46957 19.5 3.96086 19.2893 3.58579 18.9142C3.21071 18.5391 3 18.0304 3 17.5V7.5Z" fill="white"/>
<path d="M4 7.5L12 13.5L20 7.5" fill="#1B2F7C"/>
<path d="M4 7.5L12 13.5L20 7.5" stroke="white" stroke-width="2" stroke-linecap="round" stroke-linejoin="round"/>
</g>
<defs>
<clipPath id="clip0_77_663">
<rect width="24" height="24" fill="white" transform="translate(0 0.5)"/>
</clipPath>
</defs>
</svg>
